<mxfile host="app.diagrams.net" modified="2021-03-19T03:58:20.064Z" agent="5.0 (Macintosh; Intel Mac OS X 10_15_2) AppleWebKit/537.36 (KHTML, like Gecko) Chrome/89.0.4389.90 Safari/537.36" etag="iKVj3IwZH0T8nVk7_8Y_" version="14.4.2" type="github">
  <diagram id="zrNYxfTNKG2aWoxfnzqP" name="Page-1">
    <mxGraphModel dx="1298" dy="742" grid="1" gridSize="10" guides="1" tooltips="1" connect="1" arrows="1" fold="1" page="1" pageScale="1" pageWidth="827" pageHeight="1169" math="0" shadow="0">
      <root>
        <mxCell id="0" />
        <mxCell id="1" parent="0" />
        <mxCell id="YqIz4m2kfG05YHZkA2tR-5" value="" style="rounded=1;whiteSpace=wrap;html=1;fillColor=#f0a30a;strokeColor=#BD7000;fontColor=#ffffff;" vertex="1" parent="1">
          <mxGeometry x="120" y="520" width="630" height="170" as="geometry" />
        </mxCell>
        <mxCell id="YqIz4m2kfG05YHZkA2tR-6" value="" style="rounded=1;whiteSpace=wrap;html=1;fillColor=#60a917;strokeColor=#2D7600;fontColor=#ffffff;" vertex="1" parent="1">
          <mxGeometry x="120" y="290" width="620" height="170" as="geometry" />
        </mxCell>
        <mxCell id="YqIz4m2kfG05YHZkA2tR-7" value="" style="rounded=1;whiteSpace=wrap;html=1;fillColor=#dae8fc;strokeColor=#6c8ebf;" vertex="1" parent="1">
          <mxGeometry x="120" y="80" width="620" height="160" as="geometry" />
        </mxCell>
      </root>
    </mxGraphModel>
  </diagram>
</mxfile>
